<svg width="32" height="32" viewBox="0 0 32 32" fill="none" xmlns="http://www.w3.org/2000/svg">
<path d="M15.9623 3.89563C9.29204 3.89563 3.88477 9.30281 3.88477 15.9731C3.88477 22.6433 9.29195 28.0505 15.9623 28.0505C22.6325 28.0505 28.0396 22.6433 28.0396 15.9731C28.0396 9.30281 22.6325 3.89563 15.9623 3.89563ZM15.9623 27.0006C9.87216 27.0006 4.93465 22.0631 4.93465 15.9731C4.93465 9.88299 9.87216 4.94548 15.9623 4.94548C22.0522 4.94548 26.9899 9.88299 26.9899 15.9731C26.9898 22.0631 22.0522 27.0006 15.9623 27.0006ZM18.4054 17.0742C17.8528 17.0742 17.4344 17.5716 16.9331 17.5716C16.4359 17.5716 14.2532 15.4204 14.2532 14.8915C14.2532 14.3628 14.7506 14.1022 14.7506 13.5536C14.7506 13.1589 13.2784 10.7435 12.6745 10.7435C12.0705 10.7435 10.5984 11.8209 10.5984 12.8195C10.5984 15.7087 15.9267 21.2462 19.2619 21.2462C20.1815 21.2462 21.338 20.2752 21.338 19.17C21.3458 18.7556 18.9539 17.0742 18.4054 17.0742Z" fill="#3254FF"/>
</svg>
