<svg width="33" height="24" viewBox="0 0 33 24" fill="none" xmlns="http://www.w3.org/2000/svg">
<g id="Group 1321315525">
<rect id="Rectangle 34624890" width="33" height="24" fill="#1459C8"/>
<path id="Vector" d="M8.37498 12.9742C8.32607 12.9738 8.27756 12.9832 8.23223 13.002C8.1869 13.0208 8.14564 13.0485 8.11081 13.0835C8.07598 13.1186 8.04827 13.1603 8.02925 13.2063C8.01024 13.2523 8.0003 13.3017 8 13.3517V18.6235C8.00086 18.7242 8.04085 18.8204 8.11117 18.891C8.18148 18.9616 8.27638 19.0008 8.37498 19H9.12495C9.74531 19 10.2499 18.4932 10.2499 17.8693V17.4936H14.3747C14.7498 17.4963 15.117 17.3833 15.4282 17.1694C15.7393 16.9554 15.98 16.6505 16.1185 16.2946C16.1455 16.2255 16.1515 16.1497 16.1359 16.0771C16.1202 16.0045 16.0836 15.9384 16.0307 15.8873C15.9775 15.8354 15.9106 15.8005 15.8383 15.7868C15.766 15.7732 15.6914 15.7813 15.6235 15.8102C15.3466 15.9276 15.0496 15.9877 14.7497 15.9867C14.3271 15.9888 13.9126 15.8685 13.5543 15.6397C13.196 15.4109 12.9087 15.083 12.7256 14.6941C12.6943 14.6299 12.646 14.5758 12.5863 14.538C12.5265 14.5003 12.4576 14.4803 12.3873 14.4803H10.2499V14.1038C10.2499 13.4809 9.74657 12.9732 9.12495 12.9732L8.37498 12.9742ZM8.16736 9.20617C8.05852 9.38331 8.00053 9.58809 8 9.79721V9.96065C8.00148 10.1744 8.06211 10.3835 8.1749 10.5636C8.28769 10.7438 8.44804 10.8877 8.63747 10.9788L13.3437 13.254C13.2797 13.4028 13.248 13.5639 13.2505 13.7264C13.2505 14.5569 13.9232 15.2325 14.7505 15.2325C15.0145 15.2327 15.2739 15.1623 15.5029 15.0282C15.7319 14.8941 15.9225 14.701 16.0556 14.4682L18.3375 15.5714C18.3885 15.5958 18.444 15.6084 18.5003 15.6084C18.5835 15.6087 18.6645 15.5809 18.7306 15.5293L21.9195 13.0395L23.958 14.063C24.0202 14.0945 24.0897 14.1078 24.1589 14.1016C24.2281 14.0953 24.2942 14.0697 24.3501 14.0275L25.55 13.1237C25.7743 12.9563 25.9283 12.7084 25.9811 12.4299C25.9936 12.3913 26 12.3509 26 12.3102V12.221C25.9998 12.1685 25.9888 12.1167 25.9678 12.0689C25.9322 11.9037 25.8607 11.7488 25.7586 11.6157C25.6564 11.4826 25.5262 11.3747 25.3776 11.3L13.3847 5.27882C13.0204 5.09453 12.6192 4.99908 12.2127 5.00001C11.2938 5.00001 10.4575 5.46924 9.97609 6.25481L8.16736 9.20617ZM19.7916 15.6734C19.7385 15.7084 19.6951 15.7569 19.6658 15.8141C19.6366 15.8713 19.6223 15.9353 19.6245 15.9999C19.6267 16.0644 19.6453 16.1272 19.6784 16.1822C19.7116 16.2372 19.7581 16.2825 19.8135 16.3136L22.4384 17.8197C22.4951 17.8524 22.5592 17.8696 22.6244 17.8696C22.6612 17.8695 22.6978 17.8642 22.7331 17.8536C22.7816 17.8389 22.8267 17.8143 22.8656 17.7813C22.9045 17.7483 22.9365 17.7076 22.9596 17.6617L24.0866 15.4021C24.1084 15.3577 24.1214 15.3094 24.1248 15.2598C24.1282 15.2103 24.1219 15.1605 24.1062 15.1135C24.0906 15.0665 24.0659 15.0231 24.0337 14.9859C24.0014 14.9487 23.9623 14.9185 23.9185 14.8969L22.4188 14.1437C22.3595 14.1139 22.2938 14.1005 22.2279 14.1046C22.162 14.1087 22.0983 14.1302 22.043 14.1671L19.7929 15.6734H19.7916Z" fill="white"/>
</g>
</svg>
