<svg width="33" height="24" viewBox="0 0 33 24" fill="none" xmlns="http://www.w3.org/2000/svg">
<g id="Group 1321315523">
<rect id="Rectangle 34624890" width="33" height="24" fill="#1459C8"/>
<g id="Frame" clip-path="url(#clip0_227_419)">
<path id="Vector" d="M15.1001 5.72162V7.14002C12.7538 7.23452 10.4867 7.67822 9.18083 8.49812L9.17183 9.59162L9.17543 10.1955L9.18353 10.5492L9.19253 10.7418L9.19883 10.821C10.2752 10.0857 12.617 9.68342 15.1001 9.60782V11.6706C14.1965 11.9829 13.5395 12.7704 13.481 13.8702L13.4765 14.0313V17.6205H13.6322C13.9805 18.2685 14.9057 18.5808 16.0046 18.5808C17.0396 18.5808 17.9198 18.3117 18.3104 17.7312L18.3779 17.6205H18.5336V14.0313C18.5336 13.6101 18.4454 13.2303 18.2888 12.8991L23.6825 12.9C23.4256 13.1373 23.1387 13.34 22.8293 13.503C22.7375 17.1615 19.7243 20.1027 16.0145 20.1027C12.3137 20.1027 9.30953 17.1813 9.19883 13.5417C8.61293 13.2132 8.16383 12.8244 7.92533 12.3663L7.91363 12.0756L7.90373 11.523L7.90283 10.3557L7.92533 7.94912C9.08813 6.59282 12.014 5.84582 15.1001 5.72162ZM16.0145 13.3905C16.8749 13.3905 17.5535 14.0115 17.5535 14.9385C17.5535 15.8754 16.8659 16.5063 16.0145 16.5063C15.1955 16.5063 14.5259 15.9393 14.462 15.0753L14.4566 14.9385L14.462 14.799C14.5268 13.9278 15.2045 13.3905 16.0145 13.3905ZM24.9182 3.90002L25.0001 4.22942L24.7418 4.28792L24.2513 4.39592V5.07002L24.9596 4.91072V10.9407L24.4826 10.8309L24.2513 10.7796V11.5032L24.7418 11.6112L25.0001 11.6706L24.9191 12L24.1703 11.8326L23.9318 11.7822L23.471 11.6895L23.1398 11.6265L22.7168 11.5518L22.5143 11.5185L22.2191 11.4735L21.7556 11.4123L21.4091 11.3763L21.2435 11.361L21.0842 11.3493L20.8547 11.3358L20.6387 11.3286H20.4317L20.1455 11.3358L19.916 11.3493L19.7567 11.361L19.421 11.3925L19.1546 11.424L18.8756 11.46L18.4859 11.5185L18.2834 11.5518L17.8604 11.6265L17.5292 11.6895L17.0684 11.7822L16.8299 11.8326L16.082 12L16.0001 11.6706L16.5572 11.5446V10.8219L16.0406 10.9407V4.91072L16.5572 5.02772V4.35452L16.0001 4.22852L16.0811 3.90002L16.8299 4.06742L17.0684 4.11782L17.5292 4.21052L17.8604 4.27352L18.2834 4.34822L18.6839 4.41122L18.9701 4.45262L19.2446 4.48772L19.5065 4.51652L19.7567 4.53902L19.916 4.55072L20.1455 4.56422L20.3615 4.57142H20.6027L20.8547 4.56422L21.0842 4.55072L21.2435 4.53902L21.4937 4.51652L21.7547 4.48772L22.0301 4.45172L22.3163 4.41212L22.7168 4.34822L23.1398 4.27352L23.471 4.21052L23.9318 4.11782L24.1703 4.06742L24.9191 3.90002H24.9182ZM17.6066 10.6023C17.3816 10.6464 17.1476 10.6932 16.9073 10.7454V11.4699L17.3519 11.3781L17.6066 11.3295V10.6023ZM23.2019 10.5663V11.2935L23.6483 11.3781L23.9012 11.4303V10.704L23.6627 10.6545L23.2019 10.5654V10.5663ZM18.656 10.4223L18.1961 10.4961L17.9567 10.5375V11.2647L18.3365 11.1999L18.7397 11.1378H18.656V10.4223ZM22.1534 10.3953V11.1225L22.4594 11.1675L22.8527 11.2314V10.5042L22.6124 10.4637L22.1534 10.3953ZM19.7054 10.299C19.4849 10.317 19.2518 10.3422 19.0052 10.3737V11.1009L19.3022 11.0649L19.5668 11.0379L19.7045 11.0262V10.299H19.7054ZM21.104 10.2846V11.0109L21.4334 11.0379L21.8024 11.0775V10.3503C21.5702 10.3224 21.3374 10.3005 21.104 10.2846ZM20.5001 10.2639C20.3588 10.2639 20.2103 10.2675 20.0546 10.2756V11.0019C20.2112 10.9929 20.3606 10.9893 20.5001 10.9893L20.7539 10.9938V10.2675L20.5001 10.2639ZM18.4508 6.29852H16.9064V6.53252H17.8244C17.8748 6.53252 17.9 6.55772 17.9 6.60812V7.80332H16.9064V8.03732H17.9V9.31172H16.9064V9.53852H18.674V6.52532C18.6745 6.49564 18.669 6.46616 18.6579 6.43864C18.6468 6.41112 18.6302 6.38612 18.6092 6.36512C18.5889 6.3436 18.5643 6.32656 18.5371 6.31509C18.5098 6.30362 18.4804 6.29798 18.4508 6.29852ZM22.7276 6.28772H21.158V9.52772H22.9508V6.51452C22.9513 6.48484 22.9458 6.45536 22.9347 6.42784C22.9236 6.40032 22.907 6.37532 22.886 6.35432C22.8657 6.3328 22.8411 6.31576 22.8139 6.30429C22.7866 6.29282 22.7572 6.28718 22.7276 6.28772ZM20.5892 6.28772H19.0196V9.52772H20.8124V8.03372C20.8129 8.00404 20.8074 7.97456 20.7963 7.94704C20.7852 7.91952 20.7686 7.89452 20.7476 7.87352C20.7273 7.852 20.7027 7.83496 20.6755 7.82349C20.6482 7.81202 20.6188 7.80638 20.5892 7.80692H19.7576V6.52172H20.0312C20.0816 6.52172 20.1068 6.54692 20.1068 6.59732V7.26692H20.8124V6.51452C20.8129 6.48484 20.8074 6.45536 20.7963 6.42784C20.7852 6.40032 20.7686 6.37532 20.7476 6.35432C20.7273 6.3328 20.7027 6.31576 20.6755 6.30429C20.6482 6.29282 20.6188 6.28718 20.5892 6.28772ZM22.1372 6.52172C22.1876 6.52172 22.2128 6.54692 22.2128 6.59732V9.29732H21.9356V6.52172H22.1372ZM20.0321 8.04002C20.0825 8.04002 20.1077 8.06522 20.1077 8.11562V9.29642H19.7585V8.04002H20.0321ZM24.1469 6.45242H23.3045V7.70522H24.3701V6.67922C24.3706 6.64954 24.3651 6.62006 24.354 6.59254C24.3429 6.56502 24.3263 6.54002 24.3053 6.51902C24.285 6.4975 24.2604 6.48046 24.2332 6.46899C24.2059 6.45752 24.1765 6.45188 24.1469 6.45242ZM23.9093 6.81962C23.9597 6.81962 23.9849 6.84482 23.9849 6.89522V7.33442H23.6897V6.81962H23.9093ZM20.0555 4.89722V5.57402C20.2884 5.58672 20.5217 5.58973 20.7548 5.58302V4.90532L20.5001 4.91072C20.3597 4.91072 20.2121 4.90712 20.0546 4.89812L20.0555 4.89722ZM21.8042 4.82162L21.4352 4.86122L21.1049 4.88822V5.56502C21.3227 5.54972 21.5549 5.52722 21.8042 5.49752V4.82162ZM19.0061 4.79822V5.47322L19.4822 5.52902C19.5587 5.53712 19.6325 5.54342 19.7063 5.54972V4.87292L19.5677 4.86122L19.304 4.83422L19.007 4.79822H19.0061ZM22.8536 4.66772L22.4603 4.73162L22.1543 4.77662V5.45162L22.6133 5.38232L22.8536 5.34182V4.66682V4.66772ZM17.9576 4.63442V5.30852L18.4301 5.38952L18.6569 5.42372V4.76132H18.7406L18.3374 4.69922L17.9567 4.63442H17.9576ZM23.9021 4.46882L23.2028 4.60562V5.28062C23.4278 5.23832 23.6609 5.19242 23.9021 5.14292V4.46882ZM16.9073 4.42922V5.10242L17.1467 5.15192L17.6075 5.24372V4.56962L17.1197 4.47332L16.9073 4.42922Z" fill="white"/>
</g>
</g>
<defs>
<clipPath id="clip0_227_419">
<rect width="18" height="18" fill="white" transform="translate(7 3)"/>
</clipPath>
</defs>
</svg>
