<svg width="33" height="24" viewBox="0 0 33 24" fill="none" xmlns="http://www.w3.org/2000/svg">
<g id="Group 1321315524">
<rect id="Rectangle 34624890" width="33" height="24" fill="#1459C8"/>
<path id="Vector" d="M9.06155 7.52623C9.06155 8.10823 9.00655 10.6246 9.06155 11.5166C9.29435 11.9294 9.73375 12.282 10.3146 12.5792C10.4254 15.8652 13.3776 18.5 17.0126 18.5C20.6596 18.5 23.6204 15.8476 23.7124 12.5462C24.2876 12.2548 24.7254 11.9126 24.9634 11.5166V7.52623C22.3752 4.80383 11.5668 4.84543 9.06155 7.52623ZM19.4848 16.2552H19.3328C18.9904 16.835 18.0806 17.2528 17.0002 17.2528C15.9198 17.2528 15.0098 16.835 14.6676 16.2552H14.5154V13.014V13.0132C14.5154 11.641 15.6278 10.529 17.0002 10.529C18.3724 10.529 19.4846 11.6412 19.4846 13.0128V16.2552H19.4848ZM23.7128 10.1212C21.2772 8.65603 12.6772 8.63643 10.3154 10.1212C10.2688 9.66263 10.2956 8.32443 10.2956 8.02523C13.2966 6.29343 21.4286 6.42023 23.7126 8.06963L23.7128 10.1212Z" fill="white"/>
<path id="Vector_2" d="M15.4824 13.8314C15.4824 14.0307 15.5217 14.2281 15.598 14.4122C15.6742 14.5964 15.786 14.7637 15.927 14.9046C16.0679 15.0456 16.2352 15.1574 16.4194 15.2337C16.6035 15.3099 16.8009 15.3492 17.0002 15.3492C17.1995 15.3492 17.3969 15.3099 17.5811 15.2337C17.7652 15.1574 17.9325 15.0456 18.0735 14.9046C18.2144 14.7637 18.3262 14.5964 18.4025 14.4122C18.4788 14.2281 18.518 14.0307 18.518 13.8314C18.518 13.4289 18.3581 13.0428 18.0735 12.7582C17.7888 12.4735 17.4028 12.3136 17.0002 12.3136C16.5977 12.3136 16.2116 12.4735 15.927 12.7582C15.6423 13.0428 15.4824 13.4289 15.4824 13.8314Z" fill="white"/>
</g>
</svg>
